<svg width="110" height="25" viewBox="0 0 110 25" fill="none" xmlns="http://www.w3.org/2000/svg">
<rect width="110" height="25" fill="#F5F5F5"/>
<path d="M0.761364 0.727272H7.72727L13.6364 15.1364H13.9091L19.8182 0.727272H26.7841V24H21.3068V9.70455H21.1136L15.5227 23.8523H12.0227L6.43182 9.625H6.23864V24H0.761364V0.727272ZM33.9331 24.2955C32.8194 24.2955 31.8308 24.1098 30.9672 23.7386C30.1111 23.3598 29.4331 22.7917 28.9331 22.0341C28.4406 21.2689 28.1944 20.3106 28.1944 19.1591C28.1944 18.1894 28.3649 17.3712 28.7058 16.7045C29.0467 16.0379 29.5164 15.4962 30.1149 15.0795C30.7134 14.6629 31.4028 14.3485 32.1831 14.1364C32.9634 13.9167 33.7967 13.7689 34.6831 13.6932C35.6755 13.6023 36.4747 13.5076 37.0808 13.4091C37.6869 13.303 38.1262 13.1553 38.399 12.9659C38.6793 12.7689 38.8194 12.4924 38.8194 12.1364V12.0795C38.8194 11.4962 38.6187 11.0455 38.2172 10.7273C37.8156 10.4091 37.274 10.25 36.5922 10.25C35.8573 10.25 35.2664 10.4091 34.8194 10.7273C34.3725 11.0455 34.0884 11.4848 33.9672 12.0455L28.8422 11.8636C28.9937 10.803 29.3838 9.85606 30.0126 9.02273C30.649 8.18182 31.5202 7.52273 32.6262 7.04545C33.7399 6.56061 35.077 6.31818 36.6376 6.31818C37.7512 6.31818 38.7778 6.45076 39.7172 6.71591C40.6566 6.97348 41.4747 7.35227 42.1717 7.85227C42.8687 8.3447 43.4066 8.95076 43.7853 9.67045C44.1717 10.3902 44.3649 11.2121 44.3649 12.1364V24H39.1376V21.5682H39.0012C38.6906 22.1591 38.2929 22.6591 37.8081 23.0682C37.3308 23.4773 36.7664 23.7841 36.1149 23.9886C35.4709 24.1932 34.7437 24.2955 33.9331 24.2955ZM35.649 20.6591C36.2475 20.6591 36.7853 20.5379 37.2626 20.2955C37.7475 20.053 38.1338 19.7197 38.4217 19.2955C38.7096 18.8636 38.8535 18.3636 38.8535 17.7955V16.1364C38.6944 16.2197 38.5012 16.2955 38.274 16.3636C38.0543 16.4318 37.8119 16.4962 37.5467 16.5568C37.2816 16.6174 37.0088 16.6705 36.7285 16.7159C36.4482 16.7614 36.1793 16.803 35.9217 16.8409C35.399 16.9242 34.952 17.053 34.5808 17.2273C34.2172 17.4015 33.9369 17.6288 33.7399 17.9091C33.5505 18.1818 33.4558 18.5076 33.4558 18.8864C33.4558 19.4621 33.6603 19.9015 34.0694 20.2045C34.4861 20.5076 35.0126 20.6591 35.649 20.6591ZM46.4826 24V6.54545H51.8803V9.72727H52.0622C52.3803 8.57576 52.8993 7.7197 53.619 7.15909C54.3387 6.59091 55.1758 6.30682 56.1303 6.30682C56.3879 6.30682 56.6531 6.32576 56.9258 6.36364C57.1985 6.39394 57.4523 6.44318 57.6872 6.51136V11.3409C57.422 11.25 57.0735 11.178 56.6417 11.125C56.2175 11.072 55.8387 11.0455 55.5053 11.0455C54.8462 11.0455 54.2516 11.1932 53.7212 11.4886C53.1985 11.7765 52.7856 12.1818 52.4826 12.7045C52.1872 13.2197 52.0394 13.8258 52.0394 14.5227V24H46.4826ZM64.2282 0.727272V24H58.6714V0.727272H64.2282ZM74.6328 24.3295C72.7995 24.3295 71.2237 23.9545 69.9056 23.2045C68.595 22.447 67.5836 21.3939 66.8715 20.0455C66.1669 18.6894 65.8147 17.1174 65.8147 15.3295C65.8147 13.5341 66.1669 11.9621 66.8715 10.6136C67.5836 9.25758 68.595 8.20454 69.9056 7.45454C71.2237 6.69697 72.7995 6.31818 74.6328 6.31818C76.4662 6.31818 78.0381 6.69697 79.3487 7.45454C80.6669 8.20454 81.6783 9.25758 82.3828 10.6136C83.095 11.9621 83.451 13.5341 83.451 15.3295C83.451 17.1174 83.095 18.6894 82.3828 20.0455C81.6783 21.3939 80.6669 22.447 79.3487 23.2045C78.0381 23.9545 76.4662 24.3295 74.6328 24.3295ZM74.6669 20.1364C75.3336 20.1364 75.898 19.9318 76.3601 19.5227C76.8222 19.1136 77.1745 18.5455 77.4169 17.8182C77.6669 17.0909 77.7919 16.25 77.7919 15.2955C77.7919 14.3258 77.6669 13.4773 77.4169 12.75C77.1745 12.0227 76.8222 11.4545 76.3601 11.0455C75.898 10.6364 75.3336 10.4318 74.6669 10.4318C73.9775 10.4318 73.3942 10.6364 72.9169 11.0455C72.4472 11.4545 72.0874 12.0227 71.8374 12.75C71.595 13.4773 71.4737 14.3258 71.4737 15.2955C71.4737 16.25 71.595 17.0909 71.8374 17.8182C72.0874 18.5455 72.4472 19.1136 72.9169 19.5227C73.3942 19.9318 73.9775 20.1364 74.6669 20.1364ZM87.904 24L83.3585 6.54545H88.9381L91.2903 17.7273H91.4381L93.9608 6.54545H99.404L101.995 17.6477H102.143L104.427 6.54545H110.006L105.449 24H99.5062L96.779 13.8295H96.5858L93.8585 24H87.904Z" fill="black"/>
</svg>
