<svg width="648" height="233" viewBox="0 0 648 233" fill="none" xmlns="http://www.w3.org/2000/svg">
<path d="M108.045 77.9091H135.909L159.545 135.545H160.636L184.273 77.9091H212.136V171H190.227V113.818H189.455L167.091 170.409H153.091L130.727 113.5H129.955V171H108.045V77.9091ZM240.732 172.182C236.278 172.182 232.323 171.439 228.869 169.955C225.444 168.439 222.732 166.167 220.732 163.136C218.763 160.076 217.778 156.242 217.778 151.636C217.778 147.758 218.46 144.485 219.823 141.818C221.187 139.152 223.066 136.985 225.46 135.318C227.853 133.652 230.611 132.394 233.732 131.545C236.853 130.667 240.187 130.076 243.732 129.773C247.702 129.409 250.899 129.03 253.323 128.636C255.747 128.212 257.505 127.621 258.596 126.864C259.717 126.076 260.278 124.97 260.278 123.545V123.318C260.278 120.985 259.475 119.182 257.869 117.909C256.263 116.636 254.096 116 251.369 116C248.429 116 246.066 116.636 244.278 117.909C242.49 119.182 241.353 120.939 240.869 123.182L220.369 122.455C220.975 118.212 222.535 114.424 225.05 111.091C227.596 107.727 231.081 105.091 235.505 103.182C239.96 101.242 245.308 100.273 251.55 100.273C256.005 100.273 260.111 100.803 263.869 101.864C267.626 102.894 270.899 104.409 273.687 106.409C276.475 108.379 278.626 110.803 280.141 113.682C281.687 116.561 282.46 119.848 282.46 123.545V171H261.55V161.273H261.005C259.763 163.636 258.172 165.636 256.232 167.273C254.323 168.909 252.066 170.136 249.46 170.955C246.884 171.773 243.975 172.182 240.732 172.182ZM247.596 157.636C249.99 157.636 252.141 157.152 254.05 156.182C255.99 155.212 257.535 153.879 258.687 152.182C259.838 150.455 260.414 148.455 260.414 146.182V139.545C259.778 139.879 259.005 140.182 258.096 140.455C257.217 140.727 256.247 140.985 255.187 141.227C254.126 141.47 253.035 141.682 251.914 141.864C250.793 142.045 249.717 142.212 248.687 142.364C246.596 142.697 244.808 143.212 243.323 143.909C241.869 144.606 240.747 145.515 239.96 146.636C239.202 147.727 238.823 149.03 238.823 150.545C238.823 152.848 239.641 154.606 241.278 155.818C242.944 157.03 245.05 157.636 247.596 157.636ZM290.93 171V101.182H312.521V113.909H313.249C314.521 109.303 316.597 105.879 319.476 103.636C322.355 101.364 325.703 100.227 329.521 100.227C330.552 100.227 331.612 100.303 332.703 100.455C333.794 100.576 334.809 100.773 335.749 101.045V120.364C334.688 120 333.294 119.712 331.567 119.5C329.87 119.288 328.355 119.182 327.021 119.182C324.385 119.182 322.006 119.773 319.885 120.955C317.794 122.106 316.143 123.727 314.93 125.818C313.749 127.879 313.158 130.303 313.158 133.091V171H290.93ZM361.913 77.9091V171H339.685V77.9091H361.913ZM403.531 172.318C396.198 172.318 389.895 170.818 384.622 167.818C379.38 164.788 375.334 160.576 372.486 155.182C369.668 149.758 368.259 143.47 368.259 136.318C368.259 129.136 369.668 122.848 372.486 117.455C375.334 112.03 379.38 107.818 384.622 104.818C389.895 101.788 396.198 100.273 403.531 100.273C410.865 100.273 417.153 101.788 422.395 104.818C427.668 107.818 431.713 112.03 434.531 117.455C437.38 122.848 438.804 129.136 438.804 136.318C438.804 143.47 437.38 149.758 434.531 155.182C431.713 160.576 427.668 164.788 422.395 167.818C417.153 170.818 410.865 172.318 403.531 172.318ZM403.668 155.545C406.334 155.545 408.592 154.727 410.44 153.091C412.289 151.455 413.698 149.182 414.668 146.273C415.668 143.364 416.168 140 416.168 136.182C416.168 132.303 415.668 128.909 414.668 126C413.698 123.091 412.289 120.818 410.44 119.182C408.592 117.545 406.334 116.727 403.668 116.727C400.91 116.727 398.577 117.545 396.668 119.182C394.789 120.818 393.35 123.091 392.35 126C391.38 128.909 390.895 132.303 390.895 136.182C390.895 140 391.38 143.364 392.35 146.273C393.35 149.182 394.789 151.455 396.668 153.091C398.577 154.727 400.91 155.545 403.668 155.545ZM456.616 171L438.434 101.182H460.752L470.161 145.909H470.752L480.843 101.182H502.616L512.98 145.591H513.57L522.707 101.182H545.025L526.798 171H503.025L492.116 130.318H491.343L480.434 171H456.616Z" fill="black"/>
</svg>
