<svg width="329" height="71" viewBox="0 0 329 71" fill="none" xmlns="http://www.w3.org/2000/svg">
<path d="M0.284091 0.181816H21.1818L38.9091 43.4091H39.7273L57.4545 0.181816H78.3523V70H61.9205V27.1136H61.3409L44.5682 69.5568H34.0682L17.2955 26.875H16.7159V70H0.284091V0.181816ZM99.7992 70.8864C96.4583 70.8864 93.4924 70.3295 90.9015 69.2159C88.3333 68.0795 86.2992 66.375 84.7992 64.1023C83.3219 61.8068 82.5833 58.9318 82.5833 55.4773C82.5833 52.5682 83.0947 50.1136 84.1174 48.1136C85.1401 46.1136 86.5492 44.4886 88.3447 43.2386C90.1401 41.9886 92.2083 41.0455 94.5492 40.4091C96.8901 39.75 99.3901 39.3068 102.049 39.0795C105.026 38.8068 107.424 38.5227 109.242 38.2273C111.061 37.9091 112.379 37.4659 113.197 36.8977C114.038 36.3068 114.458 35.4773 114.458 34.4091V34.2386C114.458 32.4886 113.856 31.1364 112.651 30.1818C111.447 29.2273 109.822 28.75 107.776 28.75C105.572 28.75 103.799 29.2273 102.458 30.1818C101.117 31.1364 100.265 32.4545 99.9015 34.1364L84.5265 33.5909C84.981 30.4091 86.1515 27.5682 88.0378 25.0682C89.9469 22.5455 92.5606 20.5682 95.8788 19.1364C99.2197 17.6818 103.231 16.9545 107.913 16.9545C111.254 16.9545 114.333 17.3523 117.151 18.1477C119.97 18.9205 122.424 20.0568 124.515 21.5568C126.606 23.0341 128.22 24.8523 129.356 27.0114C130.515 29.1705 131.095 31.6364 131.095 34.4091V70H115.413V62.7045H115.004C114.072 64.4773 112.879 65.9773 111.424 67.2045C109.992 68.4318 108.299 69.3523 106.345 69.9659C104.413 70.5795 102.231 70.8864 99.7992 70.8864ZM104.947 59.9773C106.742 59.9773 108.356 59.6136 109.788 58.8864C111.242 58.1591 112.401 57.1591 113.265 55.8864C114.129 54.5909 114.561 53.0909 114.561 51.3864V46.4091C114.083 46.6591 113.504 46.8864 112.822 47.0909C112.163 47.2955 111.436 47.4886 110.64 47.6705C109.845 47.8523 109.026 48.0114 108.186 48.1477C107.345 48.2841 106.538 48.4091 105.765 48.5227C104.197 48.7727 102.856 49.1591 101.742 49.6818C100.651 50.2045 99.8106 50.8864 99.2197 51.7273C98.6515 52.5455 98.3674 53.5227 98.3674 54.6591C98.3674 56.3864 98.981 57.7045 100.208 58.6136C101.458 59.5227 103.038 59.9773 104.947 59.9773ZM137.448 70V17.6364H153.641V27.1818H154.186C155.141 23.7273 156.698 21.1591 158.857 19.4773C161.016 17.7727 163.527 16.9205 166.391 16.9205C167.164 16.9205 167.959 16.9773 168.777 17.0909C169.596 17.1818 170.357 17.3295 171.061 17.5341V32.0227C170.266 31.75 169.221 31.5341 167.925 31.375C166.652 31.2159 165.516 31.1364 164.516 31.1364C162.539 31.1364 160.755 31.5795 159.164 32.4659C157.596 33.3295 156.357 34.5455 155.448 36.1136C154.561 37.6591 154.118 39.4773 154.118 41.5682V70H137.448ZM190.685 0.181816V70H174.014V0.181816H190.685ZM221.899 70.9886C216.399 70.9886 211.671 69.8636 207.717 67.6136C203.785 65.3409 200.751 62.1818 198.614 58.1364C196.501 54.0682 195.444 49.3523 195.444 43.9886C195.444 38.6023 196.501 33.8864 198.614 29.8409C200.751 25.7727 203.785 22.6136 207.717 20.3636C211.671 18.0909 216.399 16.9545 221.899 16.9545C227.399 16.9545 232.114 18.0909 236.046 20.3636C240.001 22.6136 243.035 25.7727 245.149 29.8409C247.285 33.8864 248.353 38.6023 248.353 43.9886C248.353 49.3523 247.285 54.0682 245.149 58.1364C243.035 62.1818 240.001 65.3409 236.046 67.6136C232.114 69.8636 227.399 70.9886 221.899 70.9886ZM222.001 58.4091C224.001 58.4091 225.694 57.7955 227.08 56.5682C228.467 55.3409 229.524 53.6364 230.251 51.4545C231.001 49.2727 231.376 46.75 231.376 43.8864C231.376 40.9773 231.001 38.4318 230.251 36.25C229.524 34.0682 228.467 32.3636 227.08 31.1364C225.694 29.9091 224.001 29.2955 222.001 29.2955C219.933 29.2955 218.183 29.9091 216.751 31.1364C215.342 32.3636 214.262 34.0682 213.512 36.25C212.785 38.4318 212.421 40.9773 212.421 43.8864C212.421 46.75 212.785 49.2727 213.512 51.4545C214.262 53.6364 215.342 55.3409 216.751 56.5682C218.183 57.7955 219.933 58.4091 222.001 58.4091ZM261.712 70L248.076 17.6364H264.814L271.871 51.1818H272.314L279.882 17.6364H296.212L303.985 50.9432H304.428L311.28 17.6364H328.019L314.348 70H296.519L288.337 39.4886H287.757L279.576 70H261.712Z" fill="black"/>
</svg>
