<svg width="484" height="173" viewBox="0 0 484 173" fill="none" xmlns="http://www.w3.org/2000/svg">
<rect width="484" height="173" fill="#F5F5F5"/>
<rect width="484" height="173" fill="white"/>
<path d="M13 132.976V43.376H33.864L70.984 104.304H59.976L96.072 43.376H116.936L117.192 132.976H93.896L93.64 78.832H97.608L70.6 124.144H59.336L31.56 78.832H36.424V132.976H13Z" fill="black"/>
<path d="M168.661 132.976V120.048L166.997 116.848V93.04C166.997 89.2 165.802 86.256 163.413 84.208C161.109 82.0747 157.397 81.008 152.277 81.008C148.949 81.008 145.578 81.5627 142.165 82.672C138.752 83.696 135.85 85.1467 133.461 87.024L125.269 70.512C129.194 67.952 133.888 65.9893 139.349 64.624C144.896 63.1733 150.4 62.448 155.861 62.448C167.125 62.448 175.829 65.0507 181.973 70.256C188.202 75.376 191.317 83.44 191.317 94.448V132.976H168.661ZM148.181 134.128C142.634 134.128 137.941 133.189 134.101 131.312C130.261 129.435 127.317 126.875 125.269 123.632C123.306 120.389 122.325 116.763 122.325 112.752C122.325 108.485 123.392 104.816 125.525 101.744C127.744 98.5867 131.114 96.1973 135.637 94.576C140.16 92.8693 146.005 92.016 153.173 92.016H169.557V104.688H156.501C152.576 104.688 149.802 105.328 148.181 106.608C146.645 107.888 145.877 109.595 145.877 111.728C145.877 113.861 146.688 115.568 148.309 116.848C149.93 118.128 152.149 118.768 154.965 118.768C157.61 118.768 160 118.128 162.133 116.848C164.352 115.483 165.973 113.435 166.997 110.704L170.325 119.664C169.045 124.443 166.528 128.069 162.773 130.544C159.104 132.933 154.24 134.128 148.181 134.128Z" fill="black"/>
<path d="M198.988 132.976V63.6H222.156V83.824L218.7 78.064C220.748 72.8587 224.076 68.976 228.684 66.416C233.292 63.7707 238.881 62.448 245.452 62.448V84.336C244.343 84.1653 243.361 84.08 242.508 84.08C241.74 83.9947 240.887 83.952 239.948 83.952C234.999 83.952 230.988 85.3173 227.916 88.048C224.844 90.6933 223.308 95.0453 223.308 101.104V132.976H198.988Z" fill="black"/>
<path d="M247.808 132.976V38H272.128V132.976H247.808Z" fill="black"/>
<path d="M315.069 134.128C307.474 134.128 300.733 132.592 294.845 129.52C288.957 126.448 284.306 122.224 280.893 116.848C277.565 111.387 275.901 105.157 275.901 98.16C275.901 91.1627 277.565 84.976 280.893 79.6C284.306 74.224 288.957 70.0427 294.845 67.056C300.733 63.984 307.474 62.448 315.069 62.448C322.664 62.448 329.405 63.984 335.293 67.056C341.266 70.0427 345.917 74.224 349.245 79.6C352.573 84.976 354.237 91.1627 354.237 98.16C354.237 105.157 352.573 111.387 349.245 116.848C345.917 122.224 341.266 126.448 335.293 129.52C329.405 132.592 322.664 134.128 315.069 134.128ZM315.069 114.8C317.885 114.8 320.36 114.16 322.493 112.88C324.712 111.6 326.461 109.723 327.741 107.248C329.021 104.688 329.661 101.659 329.661 98.16C329.661 94.6613 329.021 91.7173 327.741 89.328C326.461 86.8533 324.712 84.976 322.493 83.696C320.36 82.416 317.885 81.776 315.069 81.776C312.338 81.776 309.864 82.416 307.645 83.696C305.512 84.976 303.762 86.8533 302.397 89.328C301.117 91.7173 300.477 94.6613 300.477 98.16C300.477 101.659 301.117 104.688 302.397 107.248C303.762 109.723 305.512 111.6 307.645 112.88C309.864 114.16 312.338 114.8 315.069 114.8Z" fill="black"/>
<path d="M372.46 132.976L347.756 63.6H370.796L390.38 121.584H379.372L399.724 63.6H420.46L440.044 121.584H429.292L449.516 63.6H470.892L446.188 132.976H422.636L405.996 84.976H413.164L396.012 132.976H372.46Z" fill="black"/>
</svg>
